<svg width="27" height="27" fill="none" xmlns="http://www.w3.org/2000/svg"><path fill-rule="evenodd" clip-rule="evenodd" d="M4.836 25.06c-.131.749.608 1.334 1.26 1l7.407-3.807 7.407 3.807c.651.334 1.39-.251 1.259-.999l-1.4-7.982 5.944-5.663c.555-.53.267-1.499-.477-1.603L17.97 8.638l-3.685-7.302a.865.865 0 00-1.565 0L9.035 8.64.77 9.814c-.745.105-1.033 1.074-.478 1.604l5.945 5.663-1.4 7.982v-.004zm8.278-4.67l-6.22 3.196 1.17-6.677a.954.954 0 00-.274-.852l-4.904-4.675 6.837-.972a.887.887 0 00.664-.486l3.116-6.173 3.116 6.173a.887.887 0 00.663.486l6.837.97-4.903 4.675a.95.95 0 00-.276.854l1.172 6.677-6.22-3.196a.848.848 0 00-.778 0z" fill="#5661CB"/></svg>