<svg width="29" height="27" fill="none" xmlns="http://www.w3.org/2000/svg"><g clip-path="url(#clip0)" fill="#5661CB"><path d="M13.232 20.406H.472a.477.477 0 00-.472.472v5.542c0 .258.215.472.473.472h12.801c.258 0 .473-.214.473-.43v-5.584c0-.258-.258-.472-.515-.472zm-.473 5.541H.945v-4.596h11.857s0 4.596-.043 4.596zm14.993-5.541h-12.76a.477.477 0 00-.472.472v5.542c0 .258.215.472.473.472h12.802c.257 0 .472-.214.472-.43v-5.584c0-.258-.215-.472-.515-.472zm-.473 5.541H15.465v-4.596h11.857l-.043 4.596zM7.82 13.231a.477.477 0 00-.473.473v5.542c0 .258.215.472.473.472h12.8a.477.477 0 00.472-.472v-5.542a.477.477 0 00-.473-.473H7.82zm.472 5.542v-4.596h11.857l.043 4.596H8.29z"/><path d="M8.764 10.74c.257.343.644.558 1.074.558.43 0 .859-.258 1.074-.601l1.331-2.234.774.472c.043.043.129.043.171.043.13 0 .215-.086.301-.171l.215-.387h.043l5.37.86-.387.515c-.086.086-.129.171-.129.386 0 .13.13.172.215.258l6.186 4.51a.611.611 0 00.301.087c.172 0 .3-.043.387-.172l1.675-2.32c.086-.086.172-.3.129-.43a.548.548 0 00-.172-.257l-6.186-4.425c-.215-.129-.515-.086-.644.086l-.688.945-5.499-.86.086-.171c.043-.086.086-.215.043-.3a.335.335 0 00-.171-.173l-.774-.515 1.246-2.062c.258-.344.258-.774.129-1.16a1.391 1.391 0 00-.86-.773L4.125.043c-.472-.129-.988.043-1.246.472-.343.43-.343.988 0 1.418l5.886 8.807zm12.243-2.277l5.413 3.952-1.117 1.504-5.456-3.953 1.16-1.503zm-7.389-1.117l-.515.773-.602-.386L10.396 6.4c-.215-.129-.258-.387-.129-.602l.043-.086c.13-.214.387-.257.602-.128l2.706 1.76zM3.608 1.03A.326.326 0 013.78.945h.086l9.838 2.406c.086 0 .215.086.258.172a.265.265 0 01-.043.3l-1.246 2.062-1.46-.945c-.473-.3-1.118-.172-1.418.3l-.172.259c-.129.257-.172.558-.129.773.086.258.172.473.473.644l1.589.988-1.375 2.234a.362.362 0 01-.3.172.39.39 0 01-.301-.129L3.609 1.375c-.086-.086-.086-.215 0-.344zm6.788 13.79l-1.03 1.03a.337.337 0 000 .473.328.328 0 00.214.086c.086 0 .172 0 .258-.085l1.03-1.032a.337.337 0 000-.472.337.337 0 00-.472 0zm0 1.546l-1.03 1.031a.337.337 0 000 .473.328.328 0 00.214.086.61.61 0 00.258-.086l1.03-1.031a.337.337 0 000-.473.337.337 0 00-.472 0zM2.32 23.67c.086 0 .172 0 .215-.042l1.03-1.032a.337.337 0 000-.472.337.337 0 00-.472 0l-.988.988a.337.337 0 000 .473.328.328 0 00.215.085zm0 1.547a.328.328 0 00.215-.086l1.03-1.03a.337.337 0 000-.473.337.337 0 00-.472 0l-.988 1.03a.337.337 0 000 .473.328.328 0 00.215.086zm14.606-1.546c.086 0 .172 0 .258-.086l1.03-1.031a.337.337 0 000-.473.337.337 0 00-.472 0l-1.03 1.031a.337.337 0 000 .473.328.328 0 00.214.085zm0 1.546c.086 0 .172-.043.258-.086l1.03-1.03a.337.337 0 000-.473.337.337 0 00-.472 0l-1.03 1.03a.337.337 0 000 .473.328.328 0 00.214.086z"/></g><defs><clipPath id="clip0"><path fill="#fff" d="M0 0h28.267v26.893H0z"/></clipPath></defs></svg>