<svg width="29" height="31" fill="none" xmlns="http://www.w3.org/2000/svg"><g clip-path="url(#clip0)"><path d="M28.568 29.728c-.129-.344-1.03-2.492-2.105-4.038-.387-.559-.773-1.031-1.203-1.289-.601-.43-1.59-.73-2.32-.945-.171-.043-.3-.086-.472-.129l-.215-.129c-.601-.172-.601-.172-1.503-.473l-.215-.042c-1.203-.387-2.277-.73-2.836-.86v-2.448c.645-.688 3.05-3.48 3.609-7.346.043-.172.043-.387.086-.559.687-.344 1.117-.773 1.332-1.289.472-1.074-.215-2.062-.516-2.448-.086-1.332-.43-3.695-2.062-5.456C18.773.773 16.798 0 14.263 0c-2.105 0-3.824.644-5.112 1.976-1.805 1.847-2.277 4.468-2.363 5.8-.344.386-1.031 1.331-.602 2.362.215.516.645.946 1.332 1.29 0 .171.043.386.043.6 0 .087 0 .172.043.258.515 4.425 2.535 6.53 3.265 7.089v2.405c-1.804.516-7.217 2.148-8.205 3.093 0 0 0 .043-.043.043C1.074 26.463.086 29.9.043 30.03c-.086.3.086.601.387.644.043.043.086.043.172.043.257 0 .472-.172.515-.387.043-.043.988-3.35 2.32-4.768.258-.258 1.203-.688 2.406-1.117v6.014c0 .215.171.387.386.387a.385.385 0 00.387-.387v-6.272c.344-.129.73-.258 1.074-.387v6.66c0 .214.172.386.387.386.257 0 .386-.172.386-.387v-6.873c1.074-.344 2.191-.688 3.093-.902.258-.043.387-.258.387-.516v-3.05c0-.172-.086-.3-.258-.43-.043 0-2.449-1.761-3.05-6.53 0-.085 0-.171-.043-.257 1.46.386 3.437.558 6.014.558 2.406 0 4.296-.172 5.628-.558-.644 3.952-3.437 6.83-3.48 6.873a.64.64 0 00-.172.387v3.093c0 .258.172.43.387.515 0 0 1.504.473 3.18.989V30.5c0 .215.171.387.386.387.258 0 .386-.172.386-.387v-6.573c.387.13.516.172.945.301l.172.043v6.186c0 .215.172.387.387.387a.385.385 0 00.387-.387V24.53c.644.215 1.374.472 1.804.73 1.03.688 2.492 3.738 2.921 4.855a.53.53 0 00.473.3c.043 0 .129 0 .214-.043.344-.043.473-.386.344-.644zM7.131 9.752c-.257-.602.516-1.418.516-1.418.129-.129.172-.3.172-.515.129-1.203.558-3.566 2.105-5.156a5.511 5.511 0 012.148-1.331v2.105c0 .215.172.386.386.386.258 0 .387-.171.387-.386V1.203c.344-.043.687-.086 1.074-.129v2.964c0 .215.172.387.387.387.257 0 .386-.172.386-.387V1.074c.344 0 .688.043.988.086v2.277c0 .215.172.386.387.386a.385.385 0 00.387-.386V1.332c1.16.3 2.105.859 2.835 1.632 1.46 1.59 1.718 3.824 1.761 4.983h.043c0 .13.043.258.13.387.042 0 .73.773.472 1.418-.215.515-1.332 1.632-7.132 1.632-6.1.043-7.217-1.117-7.432-1.632z" fill="#fff"/><path d="M19.847 8.635c-.043-.215-.258-.387-.472-.3a25.01 25.01 0 01-9.623.042l-.258-.043c-.258-.043-.43.086-.473.3-.043.259.086.43.301.473l.258.043c1.59.301 3.222.473 4.854.473a25.8 25.8 0 005.113-.516c.214-.086.343-.3.3-.472z" fill="#5661CB"/></g><defs><clipPath id="clip0"><path fill="#fff" d="M0 0h28.611v30.888H0z"/></clipPath></defs></svg>