<svg width="36" height="28" fill="none" xmlns="http://www.w3.org/2000/svg"><path d="M36 16.797l-3.652-3.651c-2.105-2.406-4.811-2.793-6.873-2.879V0H0v23.284h2.535c-.043.258-.043.473-.043.73 0 1.934 1.59 3.48 3.48 3.48 1.933 0 3.48-1.59 3.48-3.48 0-.257-.044-.472-.044-.73h12.673c-.043.258-.043.473-.043.73 0 1.934 1.59 3.48 3.48 3.48s3.48-1.59 3.48-3.48a3.78 3.78 0 00-.086-.73h7.045v-6.487H36zM5.971 26.291a2.31 2.31 0 01-2.32-2.32c0-.257.044-.472.13-.73.128-.473.472-.902.902-1.203.386-.258.816-.43 1.288-.43.473 0 .945.13 1.29.43.429.3.73.73.901 1.203.043.258.13.473.13.73a2.31 2.31 0 01-2.32 2.32zm16.583-4.21H8.936a3.507 3.507 0 00-2.922-1.59c-1.203 0-2.32.645-2.92 1.59H1.202V1.203h23.112v19.503a3.49 3.49 0 00-1.761 1.375zm2.964 4.21a2.31 2.31 0 01-2.32-2.32c0-.257.043-.472.129-.73.129-.473.472-.902.902-1.203.387-.258.816-.43 1.289-.43s.902.13 1.289.387c.43.258.73.73.902 1.203.086.258.129.473.129.73-.043 1.332-1.074 2.363-2.32 2.363zm9.236-4.21h-6.358a3.45 3.45 0 00-2.921-1.59h-.043v-9.02c2.706.085 4.554.858 5.971 2.49l3.308 3.352v4.768h.043z" fill="#5661CB"/></svg>